<svg width="196" height="48" viewBox="0 0 196 48" fill="none" xmlns="http://www.w3.org/2000/svg">
<mask id="path-1-inside-1" fill="white">
<path fill-rule="evenodd" clip-rule="evenodd" d="M10 0C4.47715 0 0 4.47715 0 10V30C0 35.5228 4.47715 40 10 40H93.5352L97.2076 44.7706C97.6079 45.2906 98.3921 45.2906 98.7924 44.7706L102.465 40H186C191.523 40 196 35.5228 196 30V10C196 4.47715 191.523 0 186 0H10Z"/>
</mask>
<path d="M93.5352 40L95.12 38.78L94.5195 38H93.5352V40ZM97.2076 44.7706L98.7924 43.5507L98.7924 43.5506L97.2076 44.7706ZM98.7924 44.7706L97.2076 43.5506L97.2076 43.5507L98.7924 44.7706ZM102.465 40V38H101.48L100.88 38.78L102.465 40ZM2 10C2 5.58172 5.58172 2 10 2V-2C3.37258 -2 -2 3.37258 -2 10H2ZM2 30V10H-2V30H2ZM10 38C5.58172 38 2 34.4183 2 30H-2C-2 36.6274 3.37258 42 10 42V38ZM93.5352 38H10V42H93.5352V38ZM98.7924 43.5506L95.12 38.78L91.9503 41.22L95.6228 45.9906L98.7924 43.5506ZM97.2076 43.5507C97.6079 43.0306 98.3921 43.0306 98.7924 43.5507L95.6228 45.9906C96.8237 47.5507 99.1763 47.5507 100.377 45.9906L97.2076 43.5507ZM100.88 38.78L97.2076 43.5506L100.377 45.9906L104.05 41.22L100.88 38.78ZM186 38H102.465V42H186V38ZM194 30C194 34.4183 190.418 38 186 38V42C192.627 42 198 36.6274 198 30H194ZM194 10V30H198V10H194ZM186 2C190.418 2 194 5.58172 194 10H198C198 3.37258 192.627 -2 186 -2V2ZM10 2H186V-2H10V2Z" fill="#FFA9A9" mask="url(#path-1-inside-1)"/>
</svg>
