<svg id="레이어_1" data-name="레이어 1" xmlns="http://www.w3.org/2000/svg" xmlns:xlink="http://www.w3.org/1999/xlink" viewBox="0 0 720 720"><defs><clipPath id="clip-path"><rect x="228.96079" y="326.46976" width="69.3305" height="69.3305" transform="translate(-157.70564 211.4794) rotate(-34.31595)" fill="none"/></clipPath><clipPath id="clip-path-2"><rect x="360.24653" y="236.85915" width="69.3305" height="69.3305" transform="translate(-84.33571 269.89502) rotate(-34.31595)" fill="none"/></clipPath></defs><title>대지 1</title><path d="M397.26005,224.562c-32.29794-47.31872-104.12519-65.71216-153.69525-31.87754s-58.10941,107.08323-25.81146,154.40194c0,0,20.02212,128.54845,156.89259,31.4325,136.8696-97.1174,22.61412-153.9569,22.61412-153.9569" fill="#fcede6"/><path d="M222.86132,319.92151s-19.989,4.49821-20.98961,4.90687c-13.20327,5.39029-25.01711,38.36,9.22174,52.66916,37.90936,15.84126,28.40486-54.50413,11.76787-57.576" fill="#fcede6"/><path d="M368.90206,220.2397s11.4735-16.97686,12.21722-17.75884c9.83049-10.33166,44.8396-9.32156,45.6886,27.77828.93972,41.07531-61.107,6.59323-57.90582-10.01944" fill="#fcede6"/><path d="M280.1414,305.84433c3.68549,5.39949,3.23315,12.12459-1.00848,15.01977s-10.66926.86607-14.35474-4.53343-3.23323-12.12454,1.00848-15.01977,10.66927-.86605,14.35474,4.53343" fill="#333"/><g opacity="0.39999"><g clip-path="url(#clip-path)"><path d="M292.25751,341.59227a34.66525,34.66525,0,1,1-48.17421-9.08872,34.665,34.665,0,0,1,48.17421,9.08872" fill="#f2d3d2"/></g></g><g opacity="0.39999"><g clip-path="url(#clip-path-2)"><path d="M423.54325,251.98166a34.66525,34.66525,0,1,1-48.17421-9.08872,34.66494,34.66494,0,0,1,48.17421,9.08872" fill="#f2d3d2"/></g></g><path d="M347.18093,260.08571c3.68549,5.3995,3.23315,12.1246-1.00848,15.01978s-10.66926.86607-14.35475-4.53343-3.23323-12.12454,1.00849-15.01977,10.66927-.86605,14.35474,4.53342" fill="#333"/><path d="M313.44471,315.64243s2.83184-19.84718,22.34651-15.25287" fill="none" stroke="#040000" stroke-linecap="round" stroke-linejoin="round" stroke-width="4.07021"/><path d="M381.16689,279.88246c14.14514,20.72362,1.39464,52.27907-27.5524,72.03721-26.21391,17.89261-57.33761,18.93941-73.485,3.585" fill="none" stroke="#040000" stroke-linecap="round" stroke-linejoin="round" stroke-width="3.51387"/><path d="M308.089,403.24014c14.81674-17.3378,86.3913-71.06973,100.48976-52.65682,8.84053,11.546,45.37205,59.82043,38.68618,103.55237-6.16181,40.30361-35.80735,43.593-53.57859,49.74725-17.19922,5.956-42.78169-1.47911-47.99749-9.11647C336.33994,481.07707,296.77929,416.47425,308.089,403.24014Z" fill="#fbece5"/><path d="M366.222,479.66541s-38.69565-72.43032-62.01226-1.9844c0,0-2.37795,18.85173,3.02786,36.21516,0,0-20.88739,18.35563,9.37459,20.34s33.73467-15.379,33.73467-15.379,6.94538-21.33221,1.4883-35.71906" fill="#fbece5" stroke="#efd1d0" stroke-linecap="round" stroke-linejoin="round" stroke-width="2.85256"/><path d="M393.50736,459.32539s25.301-29.26979,50.602-4.46489c12.40245,14.38685,4.961,32.24638-3.47269,45.14493a135.52914,135.52914,0,0,1-18.53984,22.32441s19.16361,18.85173,0,20.83612-43.226,7.93757-42.605-33.23857c0,0-2.35567-13.39465,15.50386-36.21516" fill="#fbece5" stroke="#efd1d0" stroke-linecap="round" stroke-linejoin="round" stroke-width="2.85256"/><path d="M353.74605,500.94754s11.73018,8.29529,25.74575,5.16488" fill="#fbece5"/><path d="M399.701,357.12917s56.31475-53.37455,69.2133-110.52784c-1.84766,7.08681-9.922-3.6411-6.94537-14.52206s-7.93757-6.827-4.961-16.79152,19.84392,2.72323,19.84392,2.72323a60.25623,60.25623,0,0,1-6.94538-17.24227c-1.98439-9.33628,10.91416-3.672,10.91416-3.672S477.844,180.96421,492.727,191.6554c0,0,.99219-16.27728,21.82831,9.11331,0,0,0-16.46083,11.90635,0s0,39.48535-14.88294,45.83262c0,0,3.96879,60.91805-61.51616,110.52786,0,0,31.58657,71.56951-2.38174,102.93486" fill="#fbece5"/><path d="M319.50093,450.39562l-26.92967-14.88294s-18.89646,3.0547-32.49524-8.92977c-20.43994-18.0135.37208-18.50679.37208-18.50679,6.94537-16.85422,11.53428-5.2928,11.53428-5.2928,5.209-17.50057,8.92976-1.30764,8.92976-1.30764,7.0694-17.30915,9.67391,0,9.67391,0,6.32525-15.07671,12.27843-.56584,12.27843-.56584,7.98884-1.98439,13.39465,8.55769,13.39465,8.55769,10.79013,0,15.422,5.209,15.422,5.209" fill="#fbece5" stroke="#efd1d0" stroke-linecap="round" stroke-linejoin="round" stroke-width="2.85256"/><path d="M268.847,236.05851c7.66816,5.71523,18.80565,2.45766,24.87495-7.27426,4.28907-6.881,3.37157-15.736-2.04995-19.77648-3.83539-2.8567-9.40656-1.22835-12.44092,3.63949-2.14574,3.44028-1.68653,7.86848,1.0254,9.889,1.91842,1.42784,4.7036.616,6.22051-1.81978" fill="none" stroke="#040000" stroke-linecap="round" stroke-linejoin="round" stroke-width="1.69099"/></svg>