<svg width="28" height="28" viewBox="0 0 28 28" fill="none" xmlns="http://www.w3.org/2000/svg">
<path d="M7.43224 4.375C5.74389 5.525 4.38709 7.09815 3.49755 8.9371C2.608 10.776 2.21691 12.8163 2.36337 14.8539C2.50984 16.8914 3.18874 18.8548 4.33215 20.5476C5.47557 22.2404 7.04343 23.6033 8.87891 24.5" fill="#FFA9A9" fill-opacity="0.6"/>
<path d="M7.43224 4.375C5.74389 5.525 4.38709 7.09815 3.49755 8.9371C2.608 10.776 2.21691 12.8163 2.36337 14.8539C2.50984 16.8914 3.18874 18.8548 4.33215 20.5476C5.47557 22.2404 7.04343 23.6033 8.87891 24.5" stroke="#FFA9A9" stroke-width="2.5" stroke-linecap="round" stroke-linejoin="round"/>
<path d="M13.9422 2.3335C11.6125 2.34282 9.33971 3.05433 7.42056 4.37516C9.44208 5.28072 11.1694 6.73459 12.4067 8.57192C13.6439 10.4092 14.3416 12.5565 14.4206 14.7702C14.3546 16.7221 13.8199 18.6294 12.8614 20.3311C11.9029 22.0328 10.549 23.4787 8.9139 24.5468C10.4946 25.3174 12.2304 25.7164 13.9889 25.7135C17.0831 25.7135 20.0506 24.4843 22.2385 22.2964C24.4264 20.1085 25.6556 17.141 25.6556 14.0468C25.6556 10.9526 24.4264 7.98518 22.2385 5.79725C20.0506 3.60933 17.0831 2.38016 13.9889 2.38016L13.9422 2.3335Z" fill="white" stroke="#FFA9A9" stroke-width="2.5" stroke-linecap="round" stroke-linejoin="round"/>
<path d="M8.86723 24.5C10.5023 23.4319 11.8563 21.9859 12.8147 20.2843C13.7732 18.5826 14.308 16.6752 14.3739 14.7233C14.2905 12.5228 13.5958 10.389 12.3677 8.56114C11.1395 6.73331 9.42644 5.28375 7.42056 4.375" fill="#FFA9A9" fill-opacity="0.6"/>
<path d="M8.86723 24.5C10.5023 23.4319 11.8563 21.9859 12.8147 20.2843C13.7732 18.5826 14.308 16.6752 14.3739 14.7233C14.2905 12.5228 13.5958 10.389 12.3677 8.56114C11.1395 6.73331 9.42644 5.28375 7.42056 4.375" stroke="#FFA9A9" stroke-width="0.54" stroke-miterlimit="10"/>
<path d="M16.2406 16.2283V15.7617C16.0072 14.07 15.8556 12.9617 16.4506 12.2617C16.6816 11.9887 17.0114 11.8183 17.3677 11.7877C17.724 11.7571 18.078 11.8688 18.3522 12.0983C18.5113 12.2337 18.6395 12.4017 18.7281 12.5909C18.8167 12.7801 18.8635 12.9861 18.8656 13.195C19.0721 13.1627 19.2831 13.1751 19.4844 13.2315C19.6857 13.2878 19.8725 13.3868 20.0322 13.5217C20.1606 13.6404 20.2641 13.7835 20.3367 13.9427C20.4092 14.1018 20.4494 14.2738 20.4548 14.4486C20.4602 14.6234 20.4308 14.7976 20.3683 14.9609C20.3058 15.1243 20.2113 15.2735 20.0906 15.4C19.4956 16.1117 18.3756 16.1467 16.6722 16.2167L16.2406 16.2283Z" fill="#FFA9A9" fill-opacity="0.6"/>
<path d="M18.6206 10.6751V10.4534C18.4922 9.66011 18.4222 9.14678 18.6906 8.82011C18.7482 8.76084 18.8171 8.71373 18.8933 8.68156C18.9694 8.64939 19.0512 8.63281 19.1339 8.63281C19.2166 8.63281 19.2984 8.64939 19.3745 8.68156C19.4507 8.71373 19.5196 8.76084 19.5772 8.82011C19.6563 8.88049 19.7205 8.95812 19.7649 9.04708C19.8094 9.13605 19.833 9.23399 19.8339 9.33344C19.9308 9.3174 20.0301 9.32266 20.1248 9.34885C20.2195 9.37504 20.3073 9.42154 20.3822 9.48511C20.448 9.53621 20.5027 9.60005 20.5432 9.67282C20.5836 9.74558 20.609 9.82577 20.6177 9.90857C20.6264 9.99137 20.6183 10.0751 20.5939 10.1547C20.5695 10.2343 20.5292 10.3081 20.4756 10.3718C20.2072 10.6984 19.6706 10.7101 18.8772 10.7334L18.6206 10.6751Z" fill="#FFA9A9" fill-opacity="0.6"/>
<path d="M12.9611 17.832C13.0618 17.5124 12.9841 17.2031 12.7875 17.1411C12.5908 17.0791 12.3497 17.2879 12.249 17.6074C12.1482 17.927 12.226 18.2363 12.4226 18.2983C12.6193 18.3603 12.8603 18.1515 12.9611 17.832Z" fill="white" stroke="white" stroke-width="0.18" stroke-miterlimit="10"/>
</svg>
