<svg width="28" height="28" viewBox="0 0 28 28" fill="none" xmlns="http://www.w3.org/2000/svg">
<path d="M14 25.6668C20.4433 25.6668 25.6667 20.4435 25.6667 14.0002C25.6667 7.55684 20.4433 2.3335 14 2.3335C7.55669 2.3335 2.33334 7.55684 2.33334 14.0002C2.33334 20.4435 7.55669 25.6668 14 25.6668Z" fill="#FFA9A9" fill-opacity="0.6" stroke="#FFA9A9" stroke-width="2.5" stroke-miterlimit="10"/>
<path d="M18.585 9.32163C18.5229 11.0687 18.6167 12.8178 18.865 14.5483C19.2267 15.6333 20.5683 17.675 19.5417 18.235C18.515 18.795 18.0133 18.34 16.1583 18.235C15.1893 18.2104 14.2211 18.3084 13.2767 18.5266C13.2246 18.5712 13.1585 18.5959 13.09 18.5966C10.9764 18.725 8.85695 18.725 6.74334 18.5966C5.74001 18.3166 6.11334 17.325 6.11334 16.765C6.11334 16.205 8.06168 16.52 9.03001 16.31C10.5829 15.7056 12.0751 14.9556 13.4867 14.07C13.965 13.7433 13.4867 9.28662 13.4867 9.28662L18.585 9.32163Z" fill="white"/>
<path d="M16.9167 14.0815C17.0684 14.1894 17.192 14.332 17.2774 14.4974C17.3627 14.6628 17.4073 14.8462 17.4073 15.0324C17.4073 15.2185 17.3627 15.4019 17.2774 15.5674C17.192 15.7328 17.0684 15.8754 16.9167 15.9832" stroke="#FFA9A9" stroke-width="0.68" stroke-linecap="round" stroke-linejoin="round"/>
<path d="M6.31168 16.8698C6.31168 17.2315 7.36168 17.3248 7.60668 16.4731" stroke="#FFA9A9" stroke-width="0.15" stroke-linecap="round" stroke-linejoin="round"/>
</svg>
