<svg width="28" height="28" viewBox="0 0 28 28" fill="none" xmlns="http://www.w3.org/2000/svg">
<path d="M14 25.6668C20.4433 25.6668 25.6666 20.4435 25.6666 14.0002C25.6666 7.55684 20.4433 2.3335 14 2.3335C7.55666 2.3335 2.33331 7.55684 2.33331 14.0002C2.33331 20.4435 7.55666 25.6668 14 25.6668Z" fill="#FFA9A9" fill-opacity="0.6" stroke="#FFA9A9" stroke-width="2.5" stroke-miterlimit="10"/>
<path d="M18.8184 15.8784C18.1254 16.8658 17.1476 17.6183 16.0156 18.0352C14.8836 18.4522 13.6513 18.5137 12.4834 18.2117C11.8024 17.9876 11.1822 17.6096 10.6709 17.1071C10.1596 16.6046 9.77098 15.991 9.53516 15.314C9.29933 14.637 9.22266 13.9147 9.31109 13.2033C9.39951 12.4919 9.65065 11.8104 10.045 11.2117C10.7274 10.322 11.72 9.72224 12.825 9.53195C13.93 9.34166 15.066 9.57486 16.0067 10.185C16.3928 10.3879 16.728 10.6755 16.9873 11.0262C17.2466 11.3769 17.4232 11.7817 17.504 12.2103C17.5848 12.6389 17.5676 13.0803 17.4538 13.5013C17.34 13.9223 17.1324 14.3122 16.8467 14.6417C16.4183 15.1685 15.8137 15.5226 15.1447 15.6384C14.4756 15.7542 13.7872 15.6239 13.2067 15.2717C12.9886 15.132 12.8013 14.9492 12.6563 14.7345C12.5114 14.5198 12.4118 14.2778 12.3638 14.0233C12.3157 13.7687 12.3201 13.507 12.3768 13.2543C12.4335 13.0015 12.5412 12.763 12.6934 12.5534C12.9431 12.2173 13.3123 11.99 13.7248 11.9184C14.1373 11.8467 14.5616 11.9362 14.91 12.1684C15.0646 12.2495 15.199 12.3642 15.3033 12.5042C15.4076 12.6441 15.4793 12.8057 15.5128 12.977C15.5464 13.1483 15.5411 13.3249 15.4974 13.4939C15.4536 13.6629 15.3725 13.8199 15.26 13.9534" stroke="white" stroke-width="0.9" stroke-miterlimit="10" stroke-linecap="round"/>
</svg>
