<svg width="28" height="28" viewBox="0 0 28 28" fill="none" xmlns="http://www.w3.org/2000/svg">
<path d="M14 25.6668C20.4433 25.6668 25.6666 20.4435 25.6666 14.0002C25.6666 7.55684 20.4433 2.3335 14 2.3335C7.55666 2.3335 2.33331 7.55684 2.33331 14.0002C2.33331 20.4435 7.55666 25.6668 14 25.6668Z" fill="#FFA9A9" fill-opacity="0.6" stroke="#FFA9A9" stroke-width="2.5" stroke-miterlimit="10"/>
<path d="M11.0716 14.8633C11.7675 14.8633 12.3316 14.2991 12.3316 13.6033C12.3316 12.9074 11.7675 12.3433 11.0716 12.3433C10.3758 12.3433 9.81165 12.9074 9.81165 13.6033C9.81165 14.2991 10.3758 14.8633 11.0716 14.8633Z" fill="white"/>
<path d="M17.115 14.8633C17.8109 14.8633 18.375 14.2991 18.375 13.6033C18.375 12.9074 17.8109 12.3433 17.115 12.3433C16.4191 12.3433 15.855 12.9074 15.855 13.6033C15.855 14.2991 16.4191 14.8633 17.115 14.8633Z" fill="white"/>
<path d="M11.6084 10.9897L8.48169 13.5797" stroke="white" stroke-width="0.37" stroke-linecap="round" stroke-linejoin="round"/>
<path d="M16.5784 11.0483L19.705 13.65" stroke="white" stroke-width="0.37" stroke-linecap="round" stroke-linejoin="round"/>
<path d="M10.6984 17.8852C11.614 17.0937 12.7839 16.6582 13.9942 16.6582C15.2045 16.6582 16.3744 17.0937 17.29 17.8852" stroke="white" stroke-width="0.56" stroke-linecap="round" stroke-linejoin="round"/>
<path d="M6.40501 12.9614H6.12502L6.40501 10.7681H5.41335C5.25002 10.7681 5.25002 10.6747 5.29669 10.5697C5.34335 10.4647 5.29669 10.5697 5.29669 10.5697L6.95335 7.37305H7.23335L6.95335 9.56639H7.94501C8.08501 9.56639 8.09668 9.67139 8.07335 9.72972L6.40501 12.9614Z" fill="white"/>
</svg>
