<svg width="28" height="28" viewBox="0 0 28 28" fill="none" xmlns="http://www.w3.org/2000/svg">
<path d="M7.47229 4.32812C5.77265 5.47551 4.40547 7.05063 3.50851 8.89474C2.61155 10.7389 2.21651 12.7868 2.3632 14.8322C2.5099 16.8777 3.19314 18.8483 4.34408 20.5455C5.49501 22.2428 7.07297 23.6067 8.91896 24.4998" fill="#FFA9A9" fill-opacity="0.6"/>
<path d="M7.47229 4.32812C5.77265 5.47551 4.40547 7.05063 3.50851 8.89474C2.61155 10.7389 2.21651 12.7868 2.3632 14.8322C2.5099 16.8777 3.19314 18.8483 4.34408 20.5455C5.49501 22.2428 7.07297 23.6067 8.91896 24.4998" stroke="#FFA9A9" stroke-width="2.5" stroke-miterlimit="10" stroke-linecap="round"/>
<path d="M13.9823 2.33352C11.6575 2.32908 9.3851 3.02421 7.46063 4.32852C9.48215 5.23407 11.2095 6.68795 12.4467 8.52527C13.684 10.3626 14.3817 12.5098 14.4606 14.7235C14.3947 16.6754 13.8599 18.5828 12.9015 20.2845C11.943 21.9861 10.5891 23.4321 8.95397 24.5002C10.5346 25.2707 12.2705 25.6698 14.029 25.6669C17.1232 25.6669 20.0906 24.4377 22.2785 22.2498C24.4665 20.0618 25.6956 17.0944 25.6956 14.0002C25.6956 10.906 24.4665 7.93853 22.2785 5.7506C20.0906 3.56268 17.1232 2.33352 14.029 2.33352H13.9823Z" fill="white" stroke="#FFA9A9" stroke-width="2.5" stroke-linecap="round" stroke-linejoin="round"/>
<path d="M8.90727 24.5C10.5361 23.4364 11.8861 21.9978 12.8442 20.3049C13.8024 18.6119 14.3406 16.7139 14.4139 14.77C14.335 12.5563 13.6373 10.4091 12.4 8.57175C11.1628 6.73443 9.43546 5.28055 7.41394 4.375" fill="#FFA9A9" fill-opacity="0.6"/>
<path d="M8.90727 24.5C10.5361 23.4364 11.8861 21.9978 12.8442 20.3049C13.8024 18.6119 14.3406 16.7139 14.4139 14.77C14.335 12.5563 13.6373 10.4091 12.4 8.57175C11.1628 6.73443 9.43546 5.28055 7.41394 4.375" stroke="#FFA9A9" stroke-width="0.54" stroke-miterlimit="10"/>
<path d="M12.999 17.8393C13.0998 17.5198 13.022 17.2104 12.8254 17.1484C12.6288 17.0864 12.3877 17.2952 12.2869 17.6148C12.1862 17.9343 12.2639 18.2436 12.4605 18.3056C12.6572 18.3676 12.8983 18.1588 12.999 17.8393Z" fill="white"/>
<path d="M15.4056 8.73828C16.5293 10.5131 17.1129 12.5762 17.0856 14.6766C17.1032 16.5647 16.633 18.4253 15.7206 20.0783" stroke="#FFA9A9" stroke-width="0.54" stroke-linecap="round" stroke-linejoin="round"/>
<path d="M17.0623 8.13184C18.3044 10.0951 18.9489 12.3772 18.9173 14.7002C18.9382 16.795 18.4199 18.8601 17.4123 20.6968" stroke="#FFA9A9" stroke-width="0.54" stroke-linecap="round" stroke-linejoin="round"/>
</svg>
