<svg width="28" height="28" viewBox="0 0 28 28" fill="none" xmlns="http://www.w3.org/2000/svg">
<path d="M14.0116 25.5968C20.4485 25.5968 25.6666 20.3892 25.6666 13.9652C25.6666 7.54117 20.4485 2.3335 14.0116 2.3335C7.57476 2.3335 2.35663 7.54117 2.35663 13.9652C2.35663 20.3892 7.57476 25.5968 14.0116 25.5968Z" fill="#FFA9A9" fill-opacity="0.6" stroke="#FFA9A9" stroke-width="0.54" stroke-miterlimit="10"/>
<path d="M14.385 13.8485C13.8264 12.8221 13.5654 11.6603 13.6314 10.4936C13.6973 9.327 14.0876 8.20194 14.7583 7.24512C13.0152 7.25673 11.3451 7.94641 10.1016 9.16808C8.85816 10.3898 8.13908 12.0475 8.09668 13.7901C8.09668 13.8835 8.09668 13.9768 8.09668 14.0701C8.53701 13.8879 9.00848 13.7928 9.48501 13.7901C10.0294 13.7915 10.5659 13.9198 11.0519 14.1648C11.538 14.4099 11.9602 14.765 12.285 15.2018C12.8084 15.3173 13.2824 15.5938 13.6407 15.9925C13.9989 16.3911 14.2234 16.892 14.2826 17.4246C14.3418 17.9573 14.2327 18.4952 13.9707 18.9628C13.7087 19.4303 13.3069 19.8042 12.8217 20.0318C13.5168 20.2479 14.2404 20.358 14.9683 20.3585C16.1085 20.377 17.2359 20.1167 18.2525 19.6003C19.2692 19.0838 20.1443 18.3268 20.8017 17.3951C19.5088 17.4549 18.2246 17.1551 17.0919 16.529C15.9591 15.9029 15.0221 14.975 14.385 13.8485V13.8485Z" fill="white"/>
<path d="M11.5617 16.415H11.4334C11.2802 16.0272 11.0133 15.6947 10.6676 15.4615C10.3219 15.2283 9.9137 15.1052 9.4967 15.1084C9.22581 15.0875 8.95353 15.1228 8.69694 15.2121C8.44035 15.3015 8.20498 15.4429 8.00562 15.6274C7.80626 15.812 7.64719 16.0358 7.53841 16.2848C7.42963 16.5338 7.37347 16.8025 7.37347 17.0742C7.37347 17.3459 7.42963 17.6147 7.53841 17.8636C7.64719 18.1126 7.80626 18.3364 8.00562 18.521C8.20498 18.7056 8.44035 18.847 8.69694 18.9363C8.95353 19.0256 9.22581 19.0609 9.4967 19.04H11.5617C11.7445 19.0573 11.9288 19.0362 12.1029 18.9781C12.2771 18.92 12.4371 18.8261 12.5729 18.7026C12.7087 18.579 12.8171 18.4285 12.8914 18.2606C12.9656 18.0927 13.0039 17.9111 13.0039 17.7275C13.0039 17.544 12.9656 17.3624 12.8914 17.1945C12.8171 17.0266 12.7087 16.8761 12.5729 16.7525C12.4371 16.629 12.2771 16.5351 12.1029 16.477C11.9288 16.4189 11.7445 16.3978 11.5617 16.415V16.415Z" fill="white"/>
<path d="M13.9883 25.6549C20.4252 25.6549 25.6433 20.4473 25.6433 14.0233C25.6433 7.59928 20.4252 2.3916 13.9883 2.3916C7.55143 2.3916 2.33331 7.59928 2.33331 14.0233C2.33331 20.4473 7.55143 25.6549 13.9883 25.6549Z" stroke="#FFA9A9" stroke-width="2.5" stroke-miterlimit="10"/>
</svg>
