<svg width="28" height="28" viewBox="0 0 28 28" fill="none" xmlns="http://www.w3.org/2000/svg">
<path d="M14 25.6668C20.4433 25.6668 25.6666 20.4435 25.6666 14.0002C25.6666 7.55684 20.4433 2.3335 14 2.3335C7.55666 2.3335 2.33331 7.55684 2.33331 14.0002C2.33331 20.4435 7.55666 25.6668 14 25.6668Z" fill="#FFA9A9" fill-opacity="0.6" stroke="#FFA9A9" stroke-width="2.5" stroke-miterlimit="10"/>
<path d="M11.935 8.85507C11.935 8.85507 7.26834 8.72674 7.85167 10.0217C8.435 11.3167 23.2633 10.9784 20.2067 9.77674C18.982 9.26597 17.6809 8.96239 16.3567 8.87841" stroke="white" stroke-width="0.92" stroke-linecap="round" stroke-linejoin="round"/>
<path d="M12.2266 10.8032C12.2266 10.8032 8.09664 10.6982 8.60997 11.8065C9.1233 12.9148 22.2483 12.6465 19.5416 11.5848C18.4557 11.1275 17.2996 10.8592 16.1233 10.7915" stroke="white" stroke-width="0.81" stroke-linecap="round" stroke-linejoin="round"/>
<path d="M12.2266 12.5067C12.2266 12.5067 8.52831 12.4134 8.98331 13.4051C9.43831 14.3967 21.2216 14.1634 18.7833 13.2067C17.8096 12.8077 16.777 12.5712 15.7266 12.5067" stroke="white" stroke-width="0.73" stroke-linecap="round" stroke-linejoin="round"/>
<path d="M12.6117 14.0698C12.6117 14.0698 9.70667 13.9764 10.0683 14.9681C10.43 15.9598 19.67 15.7264 17.7683 14.7698C17.0268 14.3646 16.2076 14.122 15.365 14.0581" stroke="white" stroke-width="0.65" stroke-linecap="round" stroke-linejoin="round"/>
<path d="M14.035 8.24805V16.8464" stroke="white" stroke-width="0.92" stroke-linecap="round" stroke-linejoin="round"/>
<path d="M13.4517 17.1733C13.4517 17.1733 13.9884 17.9667 11.9234 17.64C9.85837 17.3133 9.29837 17.1267 8.9717 18.0717C8.64503 19.0167 11.0484 22.1317 13.195 19.845C13.1017 19.7633 12.9267 21.7 14.1284 21.7C15.33 21.7 14.9334 19.8217 14.9334 19.8217C17.0684 22.155 19.4134 19.0167 19.0867 18.0717C18.76 17.1267 18.2117 17.3133 16.135 17.64C14.0584 17.9667 14.56 17.1733 14.56 17.1733" fill="white"/>
<path d="M10.6983 19.3082C10.9432 19.3082 11.1417 19.141 11.1417 18.9349C11.1417 18.7287 10.9432 18.5615 10.6983 18.5615C10.4535 18.5615 10.255 18.7287 10.255 18.9349C10.255 19.141 10.4535 19.3082 10.6983 19.3082Z" fill="#FFA9A9" fill-opacity="0.6"/>
<path d="M17.3483 19.3082C17.5931 19.3082 17.7916 19.141 17.7916 18.9349C17.7916 18.7287 17.5931 18.5615 17.3483 18.5615C17.1035 18.5615 16.905 18.7287 16.905 18.9349C16.905 19.141 17.1035 19.3082 17.3483 19.3082Z" fill="#FFA9A9" fill-opacity="0.6"/>
<path d="M20.6383 17.6632H20.3933L20.65 16.2515H19.74C19.5883 16.2515 19.5883 16.1932 19.6466 16.1232C19.705 16.0532 19.6466 16.1232 19.6466 16.1232L21.1516 14.0698H21.4083L21.1516 15.4815H22.0616C22.19 15.4815 22.2016 15.4815 22.1783 15.5748C21.14 16.9632 20.6383 17.6632 20.6383 17.6632Z" fill="white"/>
</svg>
