<svg width="28" height="28" viewBox="0 0 28 28" fill="none" xmlns="http://www.w3.org/2000/svg">
<path d="M14 25.6668C20.4433 25.6668 25.6666 20.4435 25.6666 14.0002C25.6666 7.55684 20.4433 2.3335 14 2.3335C7.55666 2.3335 2.33331 7.55684 2.33331 14.0002C2.33331 20.4435 7.55666 25.6668 14 25.6668Z" fill="#FFA9A9" fill-opacity="0.6" stroke="#FFA9A9" stroke-width="2.5" stroke-miterlimit="10"/>
<path d="M10.1267 21.3031C10.64 21.3031 10.6167 20.7198 10.8733 20.2881C11.2933 19.5648 11.8067 19.5648 13.0083 19.6815C22.3417 20.5215 22.3417 9.79981 17.3483 9.50814C16.1 9.43814 15.6917 8.57481 15.4233 7.29148C15.4013 7.16765 15.3483 7.0514 15.2693 6.95352C15.1903 6.85565 15.0879 6.7793 14.9715 6.73159C14.8551 6.68387 14.7286 6.66634 14.6036 6.68059C14.4786 6.69485 14.3593 6.74044 14.2567 6.81314L13.0083 7.61814C14.1167 12.5998 14.455 13.2881 12.0633 15.9715C9.90499 18.3981 9.08833 15.9715 7.80499 21.0698L10.1267 21.3031Z" fill="white"/>
<path d="M16.1583 15.1198C19.5766 14.1048 18.4916 12.6582 18.8766 14.0932C19.46 16.5315 16.3217 18.5848 14.5367 18.1765C12.7517 17.7682 13.79 15.8431 16.1583 15.1198Z" fill="#FFA9A9" fill-opacity="0.6"/>
</svg>
