<svg width="28" height="28" viewBox="0 0 28 28" fill="none" xmlns="http://www.w3.org/2000/svg">
<path d="M7.47229 4.32812C5.77264 5.47551 4.40545 7.05063 3.50849 8.89474C2.61153 10.7389 2.21651 12.7868 2.36321 14.8322C2.5099 16.8777 3.19313 18.8483 4.34406 20.5455C5.495 22.2428 7.07298 23.6067 8.91896 24.4998" fill="#FFA9A9" fill-opacity="0.6"/>
<path d="M7.47229 4.32812C5.77264 5.47551 4.40545 7.05063 3.50849 8.89474C2.61153 10.7389 2.21651 12.7868 2.36321 14.8322C2.5099 16.8777 3.19313 18.8483 4.34406 20.5455C5.495 22.2428 7.07298 23.6067 8.91896 24.4998" stroke="#FFA9A9" stroke-width="2.5" stroke-miterlimit="10"/>
<path d="M13.9823 2.33352C11.6575 2.32908 9.3851 3.02421 7.46063 4.32852C9.48215 5.23407 11.2095 6.68795 12.4467 8.52527C13.684 10.3626 14.3817 12.5098 14.4606 14.7235C14.3947 16.6754 13.8599 18.5828 12.9015 20.2845C11.943 21.9861 10.589 23.4321 8.95396 24.5002C10.5346 25.2707 12.2705 25.6698 14.029 25.6669C17.1231 25.6669 20.0906 24.4377 22.2785 22.2498C24.4665 20.0618 25.6956 17.0944 25.6956 14.0002C25.6956 10.906 24.4665 7.93853 22.2785 5.7506C20.0906 3.56268 17.1231 2.33352 14.029 2.33352H13.9823Z" fill="white" stroke="#FFA9A9" stroke-width="2.5" stroke-linecap="round" stroke-linejoin="round"/>
<path d="M8.90733 24.4998C10.5424 23.4317 11.8964 21.9857 12.8548 20.2841C13.8133 18.5824 14.3481 16.675 14.414 14.7231C14.335 12.5095 13.6374 10.3622 12.4001 8.52488C11.1628 6.68755 9.43552 5.23368 7.414 4.32812" fill="#FFA9A9" fill-opacity="0.6"/>
<path d="M8.90733 24.4998C10.5424 23.4317 11.8964 21.9857 12.8548 20.2841C13.8133 18.5824 14.3481 16.675 14.414 14.7231C14.335 12.5095 13.6374 10.3622 12.4001 8.52488C11.1628 6.68755 9.43552 5.23368 7.414 4.32812" stroke="#FFA9A9" stroke-width="0.54" stroke-miterlimit="10"/>
<path d="M12.8232 18.4216C12.9237 18.1033 12.8464 17.7951 12.6506 17.7333C12.4547 17.6714 12.2144 17.8793 12.1139 18.1976C12.0134 18.5159 12.0907 18.8241 12.2866 18.8859C12.4824 18.9478 12.7227 18.7399 12.8232 18.4216Z" fill="white"/>
<path d="M17.984 19.1335H17.634L17.984 16.4035H16.7356C16.5256 16.4035 16.5256 16.2868 16.5956 16.1468C16.6656 16.0068 16.5956 16.1468 16.5956 16.1468L18.6723 12.1685H19.0106L18.649 14.8985H19.909C20.084 14.8985 20.1073 15.0268 20.0723 15.0968V15.1551L17.984 19.1335Z" fill="#FFA9A9" fill-opacity="0.6"/>
</svg>
