<svg width="28" height="28" viewBox="0 0 28 28" fill="none" xmlns="http://www.w3.org/2000/svg">
<path d="M7.47228 4.32812C5.77264 5.47551 4.40546 7.05063 3.5085 8.89474C2.61154 10.7389 2.21651 12.7868 2.3632 14.8322C2.5099 16.8777 3.19313 18.8483 4.34407 20.5455C5.495 22.2428 7.07297 23.6067 8.91896 24.4998" fill="#FFA9A9" fill-opacity="0.6"/>
<path d="M7.47228 4.32812C5.77264 5.47551 4.40546 7.05063 3.5085 8.89474C2.61154 10.7389 2.21651 12.7868 2.3632 14.8322C2.5099 16.8777 3.19313 18.8483 4.34407 20.5455C5.495 22.2428 7.07297 23.6067 8.91896 24.4998" stroke="#FFA9A9" stroke-width="2.5" stroke-miterlimit="10"/>
<path d="M13.994 2.3335C11.6659 2.33175 9.39058 3.02654 7.46063 4.3285C9.48379 5.2318 11.2126 6.68512 12.4502 8.52293C13.6878 10.3607 14.3844 12.5092 14.4606 14.7235C14.3947 16.6754 13.8599 18.5828 12.9015 20.2844C11.943 21.9861 10.589 23.4321 8.95396 24.5002C10.5323 25.2646 12.2627 25.6634 14.0164 25.6668C15.7702 25.6703 17.5021 25.2783 19.0835 24.5201C20.6648 23.7618 22.0549 22.6568 23.1503 21.2873C24.2457 19.9177 25.0182 18.3188 25.4105 16.6095C25.8027 14.9002 25.8045 13.1245 25.4158 11.4144C25.0271 9.70426 24.2579 8.10378 23.1654 6.73195C22.0728 5.36013 20.685 4.25227 19.1053 3.49076C17.5255 2.72925 15.7944 2.33369 14.0406 2.3335H13.994Z" fill="white" stroke="#FFA9A9" stroke-width="2.5" stroke-linecap="round" stroke-linejoin="round"/>
<path d="M8.90733 24.5C10.5361 23.4364 11.8862 21.9978 12.8443 20.3049C13.8024 18.6119 14.3407 16.7139 14.414 14.77C14.3377 12.5557 13.6411 10.4072 12.4036 8.56943C11.166 6.73162 9.43716 5.2783 7.414 4.375" fill="#FFA9A9" fill-opacity="0.6"/>
<path d="M8.90733 24.5C10.5361 23.4364 11.8862 21.9978 12.8443 20.3049C13.8024 18.6119 14.3407 16.7139 14.414 14.77C14.3377 12.5557 13.6411 10.4072 12.4036 8.56943C11.166 6.73162 9.43716 5.2783 7.414 4.375" stroke="#FFA9A9" stroke-width="0.54" stroke-miterlimit="10"/>
<path d="M13.015 17.832C13.1157 17.5124 13.038 17.2031 12.8413 17.1411C12.6447 17.0791 12.4036 17.2879 12.3028 17.6075C12.2021 17.927 12.2798 18.2363 12.4765 18.2983C12.6731 18.3603 12.9142 18.1515 13.015 17.832Z" fill="white" stroke="white" stroke-width="0.18" stroke-miterlimit="10"/>
<path d="M16.619 12.5648L19.0456 11.4448" stroke="#FFA9A9" stroke-width="0.5" stroke-miterlimit="10" stroke-linecap="round"/>
<path d="M16.6074 17.6514L18.9757 18.678" stroke="#FFA9A9" stroke-width="0.45" stroke-miterlimit="10" stroke-linecap="round"/>
<path d="M17.0273 15.1782L18.859 14.9565" stroke="#FFA9A9" stroke-width="0.43" stroke-miterlimit="10" stroke-linecap="round"/>
</svg>
