<svg width="28" height="28" viewBox="0 0 28 28" fill="none" xmlns="http://www.w3.org/2000/svg">
<path d="M14 25.6668C20.4433 25.6668 25.6666 20.4435 25.6666 14.0002C25.6666 7.55684 20.4433 2.3335 14 2.3335C7.55666 2.3335 2.33331 7.55684 2.33331 14.0002C2.33331 20.4435 7.55666 25.6668 14 25.6668Z" fill="#FFA9A9" fill-opacity="0.6" stroke="#FFA9A9" stroke-width="2.48" stroke-miterlimit="10"/>
<path d="M17.3367 9.63672H10.5933C9.83946 9.63672 9.22833 10.2479 9.22833 11.0017V11.2934C9.22833 12.0473 9.83946 12.6584 10.5933 12.6584H17.3367C18.0905 12.6584 18.7017 12.0473 18.7017 11.2934V11.0017C18.7017 10.2479 18.0905 9.63672 17.3367 9.63672Z" fill="white"/>
<path d="M18.69 12.9731H8.83167C8.07781 12.9731 7.46667 13.5843 7.46667 14.3381V14.6298C7.46667 15.3837 8.07781 15.9948 8.83167 15.9948H18.69C19.4439 15.9948 20.055 15.3837 20.055 14.6298V14.3381C20.055 13.5843 19.4439 12.9731 18.69 12.9731Z" fill="white"/>
<path d="M17.185 16.2983H10.745C9.99114 16.2983 9.38 16.9095 9.38 17.6633V17.955C9.38 18.7089 9.99114 19.32 10.745 19.32H17.185C17.9389 19.32 18.55 18.7089 18.55 17.955V17.6633C18.55 16.9095 17.9389 16.2983 17.185 16.2983Z" fill="white"/>
<path d="M15.155 9.3214V7.81641H16.8816V9.3214" fill="white"/>
<path d="M11.2233 19.6235V21.1402H12.95V19.6235" fill="white"/>
</svg>
