<svg width="28" height="28" viewBox="0 0 28 28" fill="none" xmlns="http://www.w3.org/2000/svg">
<path d="M7.48237 4.32812C5.77989 5.47485 4.41009 7.05045 3.51127 8.89586C2.61245 10.7413 2.21642 12.7912 2.36317 14.8386C2.50992 16.886 3.19425 18.8584 4.34708 20.5568C5.4999 22.2551 7.08041 23.6193 8.92904 24.5115" fill="#FFA9A9" fill-opacity="0.6"/>
<path d="M7.48237 4.32812C5.77989 5.47485 4.41009 7.05045 3.51127 8.89586C2.61245 10.7413 2.21642 12.7912 2.36317 14.8386C2.50992 16.886 3.19425 18.8584 4.34708 20.5568C5.4999 22.2551 7.08041 23.6193 8.92904 24.5115" stroke="#FFA9A9" stroke-width="2.5" stroke-miterlimit="10"/>
<path d="M13.9924 2.33352C11.6676 2.32908 9.39518 3.02421 7.4707 4.32852C9.49222 5.23407 11.2196 6.68795 12.4568 8.52527C13.6941 10.3626 14.3917 12.5098 14.4707 14.7235C14.4037 16.6768 13.8686 18.5854 12.9103 20.2888C11.952 21.9922 10.5987 23.4405 8.96404 24.5119C10.5447 25.2824 12.2806 25.6814 14.039 25.6785C17.1332 25.6785 20.1007 24.4494 22.2886 22.2614C24.4765 20.0735 25.7057 17.106 25.7057 14.0119C25.7057 10.9177 24.4765 7.9502 22.2886 5.76227C20.1007 3.57435 17.1332 2.34518 14.039 2.34518L13.9924 2.33352Z" fill="white" stroke="#FFA9A9" stroke-width="2.5" stroke-linecap="round" stroke-linejoin="round"/>
<path d="M8.9174 24.5115C10.552 23.4401 11.9054 21.9918 12.8637 20.2884C13.822 18.585 14.3571 16.6764 14.4241 14.7231C14.3451 12.5095 13.6474 10.3622 12.4102 8.52488C11.1729 6.68756 9.44559 5.23368 7.42407 4.32812" fill="#FFA9A9" fill-opacity="0.6"/>
<path d="M8.9174 24.5115C10.552 23.4401 11.9054 21.9918 12.8637 20.2884C13.822 18.585 14.3571 16.6764 14.4241 14.7231C14.3451 12.5095 13.6474 10.3622 12.4102 8.52488C11.1729 6.68756 9.44559 5.23368 7.42407 4.32812" stroke="#FFA9A9" stroke-width="0.54" stroke-miterlimit="10"/>
<path d="M13.0072 17.8437C13.108 17.5241 13.0302 17.2148 12.8336 17.1528C12.6369 17.0908 12.3959 17.2996 12.2951 17.6192C12.1943 17.9387 12.2721 18.248 12.4687 18.31C12.6654 18.372 12.9065 18.1632 13.0072 17.8437Z" fill="white" stroke="white" stroke-width="0.18" stroke-miterlimit="10"/>
<path d="M18.6824 12.1567C19.4153 12.9168 19.8494 13.9157 19.9052 14.9701C19.9609 16.0245 19.6344 17.0637 18.9857 17.8967" stroke="#FFA9A9" stroke-width="0.54" stroke-linecap="round" stroke-linejoin="round"/>
<path d="M17.7141 12.9966C18.2583 13.5405 18.5793 14.2683 18.6139 15.037C18.6484 15.8057 18.394 16.5594 17.9007 17.1499" stroke="#FFA9A9" stroke-width="0.54" stroke-linecap="round" stroke-linejoin="round"/>
<path d="M16.524 13.6499C16.9127 14.0291 17.1451 14.5402 17.1753 15.0823C17.2056 15.6244 17.0315 16.1582 16.6874 16.5782" stroke="#FFA9A9" stroke-width="0.54" stroke-linecap="round" stroke-linejoin="round"/>
</svg>
