<svg width="28" height="28" viewBox="0 0 28 28" fill="none" xmlns="http://www.w3.org/2000/svg">
<path d="M14 25.6668C20.4433 25.6668 25.6666 20.4435 25.6666 14.0002C25.6666 7.55684 20.4433 2.3335 14 2.3335C7.55666 2.3335 2.33331 7.55684 2.33331 14.0002C2.33331 20.4435 7.55666 25.6668 14 25.6668Z" fill="#FFA9A9" fill-opacity="0.6" stroke="#FFA9A9" stroke-width="2.5" stroke-miterlimit="10"/>
<path d="M10.9783 13.9184C11.6742 13.9184 12.2383 13.3543 12.2383 12.6584C12.2383 11.9626 11.6742 11.3984 10.9783 11.3984C10.2824 11.3984 9.71832 11.9626 9.71832 12.6584C9.71832 13.3543 10.2824 13.9184 10.9783 13.9184Z" fill="white" stroke="white" stroke-width="0.18" stroke-miterlimit="10"/>
<path d="M17.0217 13.9184C17.7175 13.9184 18.2817 13.3543 18.2817 12.6584C18.2817 11.9626 17.7175 11.3984 17.0217 11.3984C16.3258 11.3984 15.7617 11.9626 15.7617 12.6584C15.7617 13.3543 16.3258 13.9184 17.0217 13.9184Z" fill="white" stroke="white" stroke-width="0.18" stroke-miterlimit="10"/>
<path d="M11.5033 10.0332L8.37665 12.6349" stroke="white" stroke-width="0.37" stroke-linecap="round" stroke-linejoin="round"/>
<path d="M16.485 10.1035L19.6117 12.6935" stroke="white" stroke-width="0.37" stroke-linecap="round" stroke-linejoin="round"/>
<path d="M10.1617 17.5119C11.1846 16.6238 12.4937 16.1348 13.8483 16.1348C15.203 16.1348 16.5121 16.6238 17.535 17.5119" stroke="white" stroke-width="0.62" stroke-miterlimit="10"/>
<path d="M18.41 16.4268C18.41 16.4268 17.2433 17.4884 17.57 18.4218" stroke="white" stroke-width="0.62" stroke-linecap="round" stroke-linejoin="round"/>
<path d="M9.57831 16.5083C9.57831 16.5083 10.6866 17.5933 10.395 18.515" stroke="white" stroke-width="0.62" stroke-linecap="round" stroke-linejoin="round"/>
</svg>
