<svg width="56" height="56" viewBox="0 0 56 56" fill="none" xmlns="http://www.w3.org/2000/svg">
<circle cx="28" cy="28" r="28" fill="#FFA9A9"/>
<path d="M28 30.6667C30.2134 30.6667 31.9867 28.8801 31.9867 26.6667L32 18.6667C32 16.4534 30.2134 14.6667 28 14.6667C25.7867 14.6667 24 16.4534 24 18.6667V26.6667C24 28.8801 25.7867 30.6667 28 30.6667ZM35.0667 26.6667C35.0667 30.6667 31.68 33.4667 28 33.4667C24.32 33.4667 20.9334 30.6667 20.9334 26.6667H18.6667C18.6667 31.2134 22.2934 34.9734 26.6667 35.6267V40.0001H29.3334V35.6267C33.7067 34.9867 37.3334 31.2267 37.3334 26.6667H35.0667Z" fill="white"/>
<path d="M21 40H35.5" stroke="white" stroke-width="2"/>
</svg>
