<svg width="18" height="18" viewBox="0 0 18 18" fill="none" xmlns="http://www.w3.org/2000/svg">
<path d="M14.25 14.25H3.75V3.75H14.25V14.25ZM14.25 2.25H3.75C2.925 2.25 2.25 2.925 2.25 3.75V14.25C2.25 15.075 2.925 15.75 3.75 15.75H14.25C15.075 15.75 15.75 15.075 15.75 14.25V3.75C15.75 2.925 15.075 2.25 14.25 2.25Z" fill="#989898"/>
<path d="M12.375 6.01876L7.60497 10.7888L5.61372 8.79751C5.39435 8.57813 5.03997 8.57813 4.8206 8.79751C4.60122 9.01688 4.60122 9.37126 4.8206 9.59063L7.2056 11.9756C7.42497 12.195 7.77935 12.195 7.99872 11.9756L13.1625 6.81188C13.3818 6.59251 13.3818 6.23251 13.1568 6.01313C12.9487 5.79938 12.5943 5.79938 12.375 6.01876Z" fill="#989898"/>
</svg>
