<svg width="18" height="18" viewBox="0 0 18 18" fill="none" xmlns="http://www.w3.org/2000/svg">
<path d="M14.25 14.25H3.75V3.75H14.25V14.25ZM14.25 2.25H3.75C2.925 2.25 2.25 2.925 2.25 3.75V14.25C2.25 15.075 2.925 15.75 3.75 15.75H14.25C15.075 15.75 15.75 15.075 15.75 14.25V3.75C15.75 2.925 15.075 2.25 14.25 2.25Z" fill="#989898"/>
<path d="M14.25 2.25H3.75C2.925 2.25 2.25 2.925 2.25 3.75V14.25C2.25 15.075 2.925 15.75 3.75 15.75H14.25C15.075 15.75 15.75 15.075 15.75 14.25V3.75C15.75 2.925 15.075 2.25 14.25 2.25ZM7.41 11.655L5.2875 9.5325C4.995 9.24 4.995 8.7675 5.2875 8.475C5.58 8.1825 6.0525 8.1825 6.345 8.475L7.935 10.065L11.6475 6.3525C11.94 6.06 12.4125 6.06 12.705 6.3525C12.9975 6.645 12.9975 7.1175 12.705 7.41L8.46 11.655C8.175 11.9475 7.7025 11.9475 7.41 11.655Z" fill="#FFA9A9"/>
</svg>
