<svg width="32" height="32" viewBox="0 0 32 32" fill="none" xmlns="http://www.w3.org/2000/svg">
<path opacity="0.3" d="M15.9999 14.6667L26.6666 8H5.33325L15.9999 14.6667ZM5.33325 10.6667V24H26.6666V10.6667L15.9999 17.3333L5.33325 10.6667Z" fill="#FFA9A9"/>
<path d="M26.6667 5.33333H5.33341C3.86675 5.33333 2.66675 6.53333 2.66675 8V24C2.66675 25.4667 3.86675 26.6667 5.33341 26.6667H26.6667C28.1334 26.6667 29.3334 25.4667 29.3334 24V8C29.3334 6.53333 28.1334 5.33333 26.6667 5.33333ZM26.6667 24H5.33341V10.6667L16.0001 17.3333L26.6667 10.6667V24ZM16.0001 14.6667L5.33341 8H26.6667L16.0001 14.6667Z" fill="#FFA9A9"/>
</svg>
