<svg width="32" height="32" viewBox="0 0 32 32" fill="none" xmlns="http://www.w3.org/2000/svg">
<path opacity="0.3" d="M15.9999 20.48L5.33325 13.7867V24H26.6666L26.6533 13.8267L15.9999 20.48Z" fill="#FFA9A9"/>
<path d="M29.3201 10.6667C29.3201 9.70666 28.8267 8.86666 28.0667 8.39999L16.0001 1.33333L3.93341 8.39999C3.17341 8.86666 2.66675 9.70666 2.66675 10.6667V24C2.66675 25.4667 3.86675 26.6667 5.33341 26.6667H26.6667C28.1334 26.6667 29.3334 25.4667 29.3334 24L29.3201 10.6667ZM16.0001 4.42666L26.6534 10.6667V10.68L16.0001 17.3333L5.33341 10.6667L16.0001 4.42666V4.42666ZM5.33341 24V13.7867L16.0001 20.48L26.6534 13.8267L26.6667 24H5.33341Z" fill="#FFA9A9"/>
</svg>
